<svg width="230" height="25" viewBox="0 0 230 25" fill="none" xmlns="http://www.w3.org/2000/svg">
<path d="M13.2415 0.756348L9.23762 8.60173L0.28833 9.85257L6.76491 15.9621L5.23376 24.5818L13.2415 20.5145L21.2492 24.5818L19.7181 15.9621L26.1946 9.86108L17.2453 8.60173L13.2415 0.756348Z" fill="#D1A954"/>
<path d="M64.0576 0.756348L60.0538 8.60173L51.1045 9.85257L57.5811 15.9621L56.0499 24.5818L64.0576 20.5145L72.0654 24.5818L70.5342 15.9621L77.0108 9.86108L68.0615 8.60173L64.0576 0.756348Z" fill="#D1A954"/>
<path d="M114.874 0.756348L110.87 8.60173L101.921 9.85257L108.397 15.9621L106.866 24.5818L114.874 20.5145L122.882 24.5818L121.35 15.9621L127.827 9.86108L118.878 8.60173L114.874 0.756348Z" fill="#D1A954"/>
<path d="M165.69 0.756348L161.686 8.60173L152.737 9.85257L159.214 15.9621L157.682 24.5818L165.69 20.5145L173.698 24.5818L172.167 15.9621L178.643 9.86108L169.694 8.60173L165.69 0.756348Z" fill="#D1A954"/>
<path d="M216.506 0.756348L212.502 8.60173L203.553 9.85257L210.03 15.9621L208.499 24.5818L216.506 20.5145L224.514 24.5818L222.983 15.9621L229.459 9.86108L220.51 8.60173L216.506 0.756348Z" fill="#D1A954"/>
</svg>
