<svg width="111" height="111" viewBox="0 0 111 111" fill="none" xmlns="http://www.w3.org/2000/svg">
<circle cx="55.9492" cy="55.6819" r="55" fill="#D1A954"/>
<g clip-path="url(#clip0_12_18)">
<path d="M71.5909 69.5083L62.7336 60.651C64.4135 58.5769 65.4248 55.9402 65.4248 53.0694C65.4248 46.4144 60.0104 41 53.3554 41C46.7004 41 41.2861 46.4144 41.2861 53.0694C41.2861 59.7244 46.7005 65.1387 53.3555 65.1387C56.2263 65.1387 58.863 64.1274 60.9371 62.4475L69.7945 71.3049C70.0426 71.5529 70.4447 71.5529 70.6929 71.3049L71.591 70.4067C71.839 70.1586 71.839 69.7564 71.5909 69.5083ZM53.3555 62.5978C48.1012 62.5978 43.8271 58.3236 43.8271 53.0694C43.8271 47.8151 48.1012 43.5409 53.3555 43.5409C58.6098 43.5409 62.8839 47.8151 62.8839 53.0694C62.8839 58.3236 58.6098 62.5978 53.3555 62.5978Z" fill="white"/>
</g>
<defs>
<clipPath id="clip0_12_18">
<rect width="30.4909" height="30.4909" fill="white" transform="translate(41.2861 41)"/>
</clipPath>
</defs>
</svg>
