<svg width="110" height="103" viewBox="0 0 110 103" fill="none" xmlns="http://www.w3.org/2000/svg">
<ellipse cx="55.1865" cy="51.5001" rx="54.2373" ry="50.8182" fill="#D1A954"/>
<g clip-path="url(#clip0_12_18)">
<path d="M71.259 64.7629L61.8057 55.9055C63.5987 53.8314 64.678 51.1947 64.678 48.3239C64.678 41.6689 58.8994 36.2545 51.7966 36.2545C44.6939 36.2545 38.9153 41.6689 38.9153 48.3239C38.9153 54.9789 44.6939 60.3932 51.7967 60.3932C54.8606 60.3932 57.6748 59.3819 59.8884 57.702L69.3417 66.5594C69.6066 66.8074 70.0357 66.8074 70.3006 66.5594L71.2591 65.6612C71.5238 65.4131 71.5238 65.0109 71.259 64.7629ZM51.7967 57.8523C46.1889 57.8523 41.6272 53.5782 41.6272 48.3239C41.6272 43.0696 46.1889 38.7955 51.7967 38.7955C57.4045 38.7955 61.9662 43.0696 61.9662 48.3239C61.9662 53.5782 57.4045 57.8523 51.7967 57.8523Z" fill="white"/>
</g>
<defs>
<clipPath id="clip0_12_18">
<rect width="32.5424" height="30.4909" fill="white" transform="translate(38.9153 36.2545)"/>
</clipPath>
</defs>
</svg>
